<svg width="184" height="49" viewBox="0 0 184 49" fill="none" xmlns="http://www.w3.org/2000/svg">
<path d="M6.56579 46.7057V49.0046H5.52083V47.6635H0.348267V41.5679H1.46289V46.7057H4.53682V41.5679H5.66015V46.7057H6.56579Z" fill="white"/>
<path d="M13.3753 46.7144V47.6635H8.80361V41.5679H13.2534V42.5171H9.93565V44.102H12.879V45.0337H9.93565V46.7144H13.3753Z" fill="white"/>
<path d="M21.2554 41.5679V47.6635H20.1233V45.0511H16.971V47.6635H15.839V41.5679H16.971V44.0846H20.1233V41.5679H21.2554Z" fill="white"/>
<path d="M28.5907 42.5258H26.5704V47.6635H25.4471V42.5258H23.4355V41.5679H28.5907V42.5258Z" fill="white"/>
<path d="M33.2766 41.5679C33.8049 41.5679 34.2635 41.655 34.6525 41.8292C35.0472 42.0033 35.3491 42.253 35.5581 42.5781C35.7671 42.9032 35.8716 43.2892 35.8716 43.7362C35.8716 44.1774 35.7671 44.5635 35.5581 44.8944C35.3491 45.2195 35.0472 45.4691 34.6525 45.6433C34.2635 45.8174 33.8049 45.9045 33.2766 45.9045H31.9007V47.6635H30.7687V41.5679H33.2766ZM33.2243 44.9466C33.7178 44.9466 34.0922 44.8421 34.3477 44.6332C34.6031 44.4242 34.7308 44.1252 34.7308 43.7362C34.7308 43.3473 34.6031 43.0483 34.3477 42.8393C34.0922 42.6303 33.7178 42.5258 33.2243 42.5258H31.9007V44.9466H33.2243Z" fill="white"/>
<path d="M47.881 46.7057V48.961H46.836V47.6635H42.1598V48.961H41.1061L41.1148 46.7057H41.3761C41.7592 46.6882 42.0263 46.4067 42.1772 45.861C42.334 45.3095 42.4297 44.5229 42.4646 43.5011L42.5342 41.5679H47.0014V46.7057H47.881ZM43.4573 43.6056C43.4283 44.3951 43.3644 45.054 43.2657 45.5823C43.167 46.1048 43.0103 46.4793 42.7955 46.7057H45.8868V42.5258H43.5008L43.4573 43.6056Z" fill="white"/>
<path d="M54.7203 46.7144V47.6635H50.1486V41.5679H54.5984V42.5171H51.2806V44.102H54.2239V45.0337H51.2806V46.7144H54.7203Z" fill="white"/>
<path d="M62.3914 41.5679V47.6635H61.2767V42.5258H58.8733L58.8211 44.0497C58.792 44.9031 58.7224 45.5968 58.6121 46.1309C58.5018 46.6592 58.3247 47.0627 58.0809 47.3413C57.8371 47.6142 57.5004 47.7506 57.0708 47.7506C56.9198 47.7506 56.7137 47.7216 56.4525 47.6635L56.5309 46.6795C56.6063 46.7028 56.6934 46.7144 56.7921 46.7144C57.1462 46.7144 57.3959 46.5054 57.541 46.0874C57.6919 45.6636 57.7848 44.9989 57.8197 44.0933L57.9067 41.5679H62.3914Z" fill="white"/>
<path d="M68.1293 47.7506C67.5081 47.7506 66.9479 47.6171 66.4486 47.3501C65.9494 47.0772 65.5575 46.7028 65.273 46.2267C64.9886 45.7449 64.8463 45.2079 64.8463 44.6157C64.8463 44.0236 64.9886 43.4895 65.273 43.0135C65.5575 42.5316 65.9494 42.1572 66.4486 41.8901C66.9479 41.6173 67.5081 41.4809 68.1293 41.4809C68.7504 41.4809 69.3107 41.6173 69.8099 41.8901C70.3092 42.1572 70.701 42.5287 70.9855 43.0048C71.27 43.4808 71.4122 44.0178 71.4122 44.6157C71.4122 45.2137 71.27 45.7507 70.9855 46.2267C70.701 46.7028 70.3092 47.0772 69.8099 47.3501C69.3107 47.6171 68.7504 47.7506 68.1293 47.7506ZM68.1293 46.7579C68.5356 46.7579 68.9014 46.6679 69.2265 46.488C69.5516 46.3022 69.807 46.0468 69.9928 45.7217C70.1786 45.3908 70.2714 45.0221 70.2714 44.6157C70.2714 44.2094 70.1786 43.8436 69.9928 43.5185C69.807 43.1876 69.5516 42.9322 69.2265 42.7522C68.9014 42.5665 68.5356 42.4736 68.1293 42.4736C67.7229 42.4736 67.3571 42.5665 67.0321 42.7522C66.707 42.9322 66.4515 43.1876 66.2657 43.5185C66.08 43.8436 65.9871 44.2094 65.9871 44.6157C65.9871 45.0221 66.08 45.3908 66.2657 45.7217C66.4515 46.0468 66.707 46.3022 67.0321 46.488C67.3571 46.6679 67.7229 46.7579 68.1293 46.7579Z" fill="white"/>
<path d="M77.8799 44.4938C78.2688 44.5983 78.5649 44.7783 78.7681 45.0337C78.9713 45.2834 79.0729 45.5968 79.0729 45.9742C79.0729 46.5083 78.8755 46.9234 78.4807 47.2194C78.0859 47.5155 77.5141 47.6635 76.7652 47.6635H73.8742V41.5679H76.5998C77.2848 41.5679 77.8189 41.7044 78.202 41.9772C78.5852 42.2501 78.7768 42.6361 78.7768 43.1354C78.7768 43.4547 78.6984 43.7304 78.5417 43.9626C78.3907 44.1949 78.1701 44.3719 77.8799 44.4938ZM74.9888 44.1716H76.504C76.8697 44.1716 77.1484 44.0991 77.34 43.9539C77.5315 43.8088 77.6273 43.594 77.6273 43.3095C77.6273 43.0251 77.5315 42.8103 77.34 42.6651C77.1484 42.5142 76.8697 42.4387 76.504 42.4387H74.9888V44.1716ZM76.7304 46.7927C77.5315 46.7927 77.9321 46.4909 77.9321 45.8871C77.9321 45.295 77.5315 44.9989 76.7304 44.9989H74.9888V46.7927H76.7304Z" fill="white"/>
<path d="M84.3856 47.7506C83.7644 47.7506 83.2042 47.6171 82.7049 47.3501C82.2056 47.0772 81.8138 46.7028 81.5293 46.2267C81.2449 45.7449 81.1026 45.2079 81.1026 44.6157C81.1026 44.0236 81.2449 43.4895 81.5293 43.0135C81.8138 42.5316 82.2056 42.1572 82.7049 41.8901C83.2042 41.6173 83.7644 41.4809 84.3856 41.4809C85.0067 41.4809 85.5669 41.6173 86.0662 41.8901C86.5655 42.1572 86.9573 42.5287 87.2418 43.0048C87.5262 43.4808 87.6685 44.0178 87.6685 44.6157C87.6685 45.2137 87.5262 45.7507 87.2418 46.2267C86.9573 46.7028 86.5655 47.0772 86.0662 47.3501C85.5669 47.6171 85.0067 47.7506 84.3856 47.7506ZM84.3856 46.7579C84.7919 46.7579 85.1577 46.6679 85.4828 46.488C85.8079 46.3022 86.0633 46.0468 86.2491 45.7217C86.4348 45.3908 86.5277 45.0221 86.5277 44.6157C86.5277 44.2094 86.4348 43.8436 86.2491 43.5185C86.0633 43.1876 85.8079 42.9322 85.4828 42.7522C85.1577 42.5665 84.7919 42.4736 84.3856 42.4736C83.9792 42.4736 83.6134 42.5665 83.2883 42.7522C82.9632 42.9322 82.7078 43.1876 82.522 43.5185C82.3363 43.8436 82.2434 44.2094 82.2434 44.6157C82.2434 45.0221 82.3363 45.3908 82.522 45.7217C82.7078 46.0468 82.9632 46.3022 83.2883 46.488C83.6134 46.6679 83.9792 46.7579 84.3856 46.7579Z" fill="white"/>
<path d="M90.1305 41.5679H91.2451V45.8958L94.5193 41.5679H95.573V47.6635H94.4583V43.3444L91.1841 47.6635H90.1305V41.5679ZM92.8387 41.1587C92.3162 41.1587 91.9214 41.0513 91.6544 40.8365C91.3931 40.6217 91.2596 40.3082 91.2538 39.896H92.0462C92.052 40.1108 92.1217 40.2762 92.2552 40.3924C92.3887 40.5085 92.5832 40.5665 92.8387 40.5665C93.0883 40.5665 93.2828 40.5085 93.4221 40.3924C93.5672 40.2762 93.6427 40.1108 93.6485 39.896H94.4322C94.4264 40.3024 94.2871 40.6159 94.0142 40.8365C93.7472 41.0513 93.3553 41.1587 92.8387 41.1587Z" fill="white"/>
<path d="M102.101 41.5679H103.215V45.8958L106.49 41.5679H107.543V47.6635H106.429V43.3444L103.154 47.6635H102.101V41.5679Z" fill="white"/>
<path d="M115.87 41.5679V47.6635H114.738V45.0511H111.586V47.6635H110.454V41.5679H111.586V44.0846H114.738V41.5679H115.87Z" fill="white"/>
<path d="M125.748 44.607C125.748 45.4082 125.47 46.041 124.913 46.5054C124.355 46.9698 123.563 47.2223 122.535 47.263V47.9074H121.49V47.263C120.463 47.2107 119.667 46.9553 119.104 46.4967C118.547 46.038 118.268 45.4082 118.268 44.607C118.268 43.8059 118.547 43.176 119.104 42.7174C119.667 42.253 120.463 41.9946 121.49 41.9424V41.3241H122.535V41.9424C123.563 41.9946 124.355 42.253 124.913 42.7174C125.47 43.176 125.748 43.8059 125.748 44.607ZM122.535 46.3748C123.232 46.3225 123.76 46.1483 124.12 45.8523C124.48 45.5504 124.66 45.1324 124.66 44.5983C124.66 44.0642 124.477 43.6491 124.111 43.3531C123.751 43.057 123.226 42.8857 122.535 42.8393V46.3748ZM119.374 44.607C119.374 45.1353 119.554 45.5475 119.914 45.8436C120.28 46.1396 120.805 46.3167 121.49 46.3748V42.8393C120.08 42.9438 119.374 43.533 119.374 44.607Z" fill="white"/>
<path d="M130.96 47.7506C130.339 47.7506 129.779 47.6171 129.28 47.3501C128.781 47.0772 128.389 46.7028 128.104 46.2267C127.82 45.7449 127.678 45.2079 127.678 44.6157C127.678 44.0236 127.82 43.4895 128.104 43.0135C128.389 42.5316 128.781 42.1572 129.28 41.8901C129.779 41.6173 130.339 41.4809 130.96 41.4809C131.582 41.4809 132.142 41.6173 132.641 41.8901C133.14 42.1572 133.532 42.5287 133.817 43.0048C134.101 43.4808 134.243 44.0178 134.243 44.6157C134.243 45.2137 134.101 45.7507 133.817 46.2267C133.532 46.7028 133.14 47.0772 132.641 47.3501C132.142 47.6171 131.582 47.7506 130.96 47.7506ZM130.96 46.7579C131.367 46.7579 131.733 46.6679 132.058 46.488C132.383 46.3022 132.638 46.0468 132.824 45.7217C133.01 45.3908 133.103 45.0221 133.103 44.6157C133.103 44.2094 133.01 43.8436 132.824 43.5185C132.638 43.1876 132.383 42.9322 132.058 42.7522C131.733 42.5665 131.367 42.4736 130.96 42.4736C130.554 42.4736 130.188 42.5665 129.863 42.7522C129.538 42.9322 129.283 43.1876 129.097 43.5185C128.911 43.8436 128.818 44.2094 128.818 44.6157C128.818 45.0221 128.911 45.3908 129.097 45.7217C129.283 46.0468 129.538 46.3022 129.863 46.488C130.188 46.6679 130.554 46.7579 130.96 46.7579Z" fill="white"/>
<path d="M139.205 41.5679C139.733 41.5679 140.191 41.655 140.58 41.8292C140.975 42.0033 141.277 42.253 141.486 42.5781C141.695 42.9032 141.8 43.2892 141.8 43.7362C141.8 44.1774 141.695 44.5635 141.486 44.8944C141.277 45.2195 140.975 45.4691 140.58 45.6433C140.191 45.8174 139.733 45.9045 139.205 45.9045H137.829V47.6635H136.697V41.5679H139.205ZM139.152 44.9466C139.646 44.9466 140.02 44.8421 140.276 44.6332C140.531 44.4242 140.659 44.1252 140.659 43.7362C140.659 43.3473 140.531 43.0483 140.276 42.8393C140.02 42.6303 139.646 42.5258 139.152 42.5258H137.829V44.9466H139.152Z" fill="white"/>
<path d="M149.671 47.6635L149.663 43.623L147.66 46.9669H147.155L145.152 43.6753V47.6635H144.081V41.5679H145.013L147.425 45.5997L149.811 41.5679H150.734L150.751 47.6635H149.671Z" fill="white"/>
<path d="M157.699 46.2528H154.651L154.051 47.6635H152.884L155.627 41.5679H156.741L159.493 47.6635H158.309L157.699 46.2528ZM157.325 45.3646L156.175 42.7L155.035 45.3646H157.325Z" fill="white"/>
<path d="M167.856 46.7057V49.0046H166.811V47.6635H161.638V41.5679H162.753V46.7057H165.827V41.5679H166.95V46.7057H167.856Z" fill="white"/>
<path d="M170.102 41.5679H171.217V45.8958L174.491 41.5679H175.545V47.6635H174.43V43.3444L171.156 47.6635H170.102V41.5679Z" fill="white"/>
<path d="M178.464 41.5679H179.579V45.8958L182.853 41.5679H183.907V47.6635H182.792V43.3444L179.518 47.6635H178.464V41.5679Z" fill="white"/>
<path d="M10.2282 26.4732H7.09336V35.8082H0.231445V11.4258H7.09336V20.9001H10.4024L16.2194 11.4258H23.4644L15.8362 23.199L23.5341 35.8082H15.7665L10.2282 26.4732Z" fill="white"/>
<path d="M41.9921 31.0711H31.6818L29.766 35.8082H22.73L33.4931 11.4258H40.2853L51.0832 35.8082H43.9078L41.9921 31.0711ZM39.9718 25.9856L36.8369 18.1832L33.7021 25.9856H39.9718Z" fill="white"/>
<path d="M76.7621 11.4258V35.8082H69.935V16.8944H60.6697V35.8082H53.8774V11.4258H76.7621Z" fill="white"/>
<path d="M81.9744 11.4258H88.7666V25.7418L98.8331 11.4258H105.312V35.8082H98.5196V21.5271L88.488 35.8082H81.9744V11.4258Z" fill="white"/>
<path d="M130.193 16.8944H122.739V35.8082H115.947V16.8944H108.458V11.4258H130.193V16.8944Z" fill="white"/>
<path d="M148.971 31.0711H138.661L136.745 35.8082H129.709L140.472 11.4258H147.265L158.063 35.8082H150.887L148.971 31.0711ZM146.951 25.9856L143.816 18.1832L140.681 25.9856H146.951Z" fill="white"/>
<path d="M183.874 11.4258V35.8082H177.082V16.8944H170.081L169.941 20.8653C169.825 24.3485 169.535 27.1815 169.071 29.3643C168.629 31.5471 167.863 33.2423 166.772 34.4498C165.68 35.6341 164.136 36.2262 162.139 36.2262C161.21 36.2262 160.165 36.0869 159.004 35.8082L159.387 30.1654C159.689 30.2351 160.003 30.2699 160.328 30.2699C161.233 30.2699 161.93 29.91 162.418 29.1901C162.905 28.4703 163.254 27.4717 163.463 26.1946C163.672 24.8942 163.811 23.2106 163.881 21.1439L164.229 11.4258H183.874Z" fill="white"/>
<path d="M0 0.333984H23.2248V5.80872L0 5.80872V0.333984Z" fill="#00B25D"/>
</svg>
