<svg width="287" height="76" viewBox="0 0 287 76" fill="none" xmlns="http://www.w3.org/2000/svg">
<path d="M9.89121 72.4102V76H8.25947V73.906H0.182373V64.3875H1.92289V72.4102H6.72292V64.3875H8.47704V72.4102H9.89121Z" fill="#404040"/>
<path d="M20.5245 72.4238V73.906H13.3856V64.3875H20.3341V65.8697H15.1534V68.3445H19.7494V69.7994H15.1534V72.4238H20.5245Z" fill="#404040"/>
<path d="M32.8294 64.3875V73.906H31.0617V69.8266H26.1393V73.906H24.3716V64.3875H26.1393V68.3173H31.0617V64.3875H32.8294Z" fill="#404040"/>
<path d="M44.2837 65.8832H41.129V73.906H39.3749V65.8832H36.2338V64.3875H44.2837V65.8832Z" fill="#404040"/>
<path d="M51.6009 64.3875C52.4258 64.3875 53.142 64.5235 53.7494 64.7954C54.3658 65.0674 54.8372 65.4572 55.1635 65.9648C55.4899 66.4725 55.653 67.0753 55.653 67.7733C55.653 68.4623 55.4899 69.0651 55.1635 69.5819C54.8372 70.0895 54.3658 70.4793 53.7494 70.7513C53.142 71.0232 52.4258 71.1592 51.6009 71.1592H49.4524V73.906H47.6847V64.3875H51.6009ZM51.5193 69.6634C52.2899 69.6634 52.8746 69.5003 53.2734 69.1739C53.6723 68.8476 53.8717 68.3807 53.8717 67.7733C53.8717 67.166 53.6723 66.6991 53.2734 66.3728C52.8746 66.0464 52.2899 65.8832 51.5193 65.8832H49.4524V69.6634H51.5193Z" fill="#404040"/>
<path d="M74.406 72.4102V75.932H72.7743V73.906H65.4723V75.932H63.8269L63.8405 72.4102H64.2485C64.8468 72.383 65.2638 71.9433 65.4995 71.0912C65.7442 70.23 65.8938 69.0017 65.9482 67.4062L66.057 64.3875H73.0326V72.4102H74.406ZM67.4983 67.5694C67.453 68.8022 67.3533 69.8311 67.1992 70.6561C67.0451 71.4719 66.8003 72.0567 66.4649 72.4102H71.2921V65.8832H67.5663L67.4983 67.5694Z" fill="#404040"/>
<path d="M85.0858 72.4238V73.906H77.947V64.3875H84.8955V65.8697H79.7147V68.3445H84.3108V69.7994H79.7147V72.4238H85.0858Z" fill="#404040"/>
<path d="M97.0644 64.3875V73.906H95.3239V65.8832H91.5709L91.4893 68.2629C91.444 69.5955 91.3352 70.6787 91.163 71.5127C90.9908 72.3377 90.7143 72.9677 90.3335 73.4028C89.9528 73.8289 89.427 74.0419 88.7562 74.0419C88.5205 74.0419 88.1987 73.9966 87.7907 73.906L87.9131 72.3694C88.031 72.4057 88.1669 72.4238 88.321 72.4238C88.874 72.4238 89.2638 72.0974 89.4905 71.4448C89.7262 70.783 89.8712 69.745 89.9256 68.3309L90.0616 64.3875H97.0644Z" fill="#404040"/>
<path d="M106.024 74.0419C105.054 74.0419 104.18 73.8334 103.4 73.4164C102.62 72.9904 102.008 72.4057 101.564 71.6623C101.12 70.9099 100.898 70.0714 100.898 69.1467C100.898 68.2221 101.12 67.3881 101.564 66.6447C102.008 65.8923 102.62 65.3076 103.4 64.8906C104.18 64.4645 105.054 64.2515 106.024 64.2515C106.994 64.2515 107.869 64.4645 108.649 64.8906C109.428 65.3076 110.04 65.8878 110.484 66.6311C110.929 67.3745 111.151 68.213 111.151 69.1467C111.151 70.0804 110.929 70.919 110.484 71.6623C110.04 72.4057 109.428 72.9904 108.649 73.4164C107.869 73.8334 106.994 74.0419 106.024 74.0419ZM106.024 72.4918C106.659 72.4918 107.23 72.3513 107.738 72.0703C108.245 71.7802 108.644 71.3813 108.934 70.8736C109.224 70.3569 109.369 69.7813 109.369 69.1467C109.369 68.5122 109.224 67.9411 108.934 67.4334C108.644 66.9167 108.245 66.5178 107.738 66.2368C107.23 65.9467 106.659 65.8017 106.024 65.8017C105.39 65.8017 104.819 65.9467 104.311 66.2368C103.803 66.5178 103.404 66.9167 103.114 67.4334C102.824 67.9411 102.679 68.5122 102.679 69.1467C102.679 69.7813 102.824 70.3569 103.114 70.8736C103.404 71.3813 103.803 71.7802 104.311 72.0703C104.819 72.3513 105.39 72.4918 106.024 72.4918Z" fill="#404040"/>
<path d="M121.25 68.9564C121.858 69.1195 122.32 69.4005 122.637 69.7994C122.954 70.1892 123.113 70.6787 123.113 71.268C123.113 72.102 122.805 72.7501 122.188 73.2125C121.572 73.6748 120.679 73.906 119.51 73.906H114.995V64.3875H119.251C120.321 64.3875 121.155 64.6005 121.753 65.0266C122.352 65.4527 122.651 66.0555 122.651 66.8351C122.651 67.3337 122.528 67.7643 122.284 68.1269C122.048 68.4895 121.703 68.766 121.25 68.9564ZM116.736 68.4532H119.102C119.673 68.4532 120.108 68.3399 120.407 68.1133C120.706 67.8867 120.856 67.5512 120.856 67.1071C120.856 66.6629 120.706 66.3274 120.407 66.1008C120.108 65.8651 119.673 65.7473 119.102 65.7473H116.736V68.4532ZM119.455 72.5462C120.706 72.5462 121.332 72.0748 121.332 71.132C121.332 70.2074 120.706 69.745 119.455 69.745H116.736V72.5462H119.455Z" fill="#404040"/>
<path d="M131.409 74.0419C130.439 74.0419 129.564 73.8334 128.785 73.4164C128.005 72.9904 127.393 72.4057 126.949 71.6623C126.505 70.9099 126.283 70.0714 126.283 69.1467C126.283 68.2221 126.505 67.3881 126.949 66.6447C127.393 65.8923 128.005 65.3076 128.785 64.8906C129.564 64.4645 130.439 64.2515 131.409 64.2515C132.379 64.2515 133.254 64.4645 134.033 64.8906C134.813 65.3076 135.425 65.8878 135.869 66.6311C136.313 67.3745 136.535 68.213 136.535 69.1467C136.535 70.0804 136.313 70.919 135.869 71.6623C135.425 72.4057 134.813 72.9904 134.033 73.4164C133.254 73.8334 132.379 74.0419 131.409 74.0419ZM131.409 72.4918C132.044 72.4918 132.615 72.3513 133.122 72.0703C133.63 71.7802 134.029 71.3813 134.319 70.8736C134.609 70.3569 134.754 69.7813 134.754 69.1467C134.754 68.5122 134.609 67.9411 134.319 67.4334C134.029 66.9167 133.63 66.5178 133.122 66.2368C132.615 65.9467 132.044 65.8017 131.409 65.8017C130.774 65.8017 130.203 65.9467 129.696 66.2368C129.188 66.5178 128.789 66.9167 128.499 67.4334C128.209 67.9411 128.064 68.5122 128.064 69.1467C128.064 69.7813 128.209 70.3569 128.499 70.8736C128.789 71.3813 129.188 71.7802 129.696 72.0703C130.203 72.3513 130.774 72.4918 131.409 72.4918Z" fill="#404040"/>
<path d="M140.38 64.3875H142.12V71.1456L147.233 64.3875H148.878V73.906H147.138V67.1614L142.025 73.906H140.38V64.3875ZM144.609 63.7484C143.793 63.7484 143.176 63.5807 142.759 63.2453C142.352 62.9099 142.143 62.4203 142.134 61.7767H143.371C143.38 62.1121 143.489 62.3705 143.698 62.5518C143.906 62.7331 144.21 62.8237 144.609 62.8237C144.999 62.8237 145.302 62.7331 145.52 62.5518C145.746 62.3705 145.864 62.1121 145.873 61.7767H147.097C147.088 62.4113 146.871 62.9008 146.444 63.2453C146.027 63.5807 145.416 63.7484 144.609 63.7484Z" fill="#404040"/>
<path d="M159.072 64.3875H160.812V71.1456L165.925 64.3875H167.57V73.906H165.83V67.1614L160.717 73.906H159.072V64.3875Z" fill="#404040"/>
<path d="M180.574 64.3875V73.906H178.806V69.8266H173.883V73.906H172.116V64.3875H173.883V68.3173H178.806V64.3875H180.574Z" fill="#404040"/>
<path d="M195.998 69.1331C195.998 70.3841 195.563 71.3722 194.693 72.0974C193.823 72.8227 192.585 73.217 190.981 73.2805V74.2867H189.349V73.2805C187.745 73.1989 186.503 72.8 185.623 72.0839C184.753 71.3677 184.318 70.3841 184.318 69.1331C184.318 67.8821 184.753 66.8986 185.623 66.1824C186.503 65.4572 187.745 65.0538 189.349 64.9722V64.0068H190.981V64.9722C192.585 65.0538 193.823 65.4572 194.693 66.1824C195.563 66.8986 195.998 67.8821 195.998 69.1331ZM190.981 71.8935C192.069 71.8119 192.894 71.5399 193.456 71.0776C194.018 70.6062 194.299 69.9535 194.299 69.1195C194.299 68.2855 194.013 67.6374 193.442 67.175C192.88 66.7127 192.06 66.4453 190.981 66.3728V71.8935ZM186.045 69.1331C186.045 69.9581 186.326 70.6017 186.888 71.064C187.459 71.5263 188.279 71.8028 189.349 71.8935V66.3728C187.146 66.5359 186.045 67.4561 186.045 69.1331Z" fill="#404040"/>
<path d="M204.137 74.0419C203.167 74.0419 202.292 73.8334 201.513 73.4164C200.733 72.9904 200.121 72.4057 199.677 71.6623C199.233 70.9099 199.011 70.0714 199.011 69.1467C199.011 68.2221 199.233 67.3881 199.677 66.6447C200.121 65.8923 200.733 65.3076 201.513 64.8906C202.292 64.4645 203.167 64.2515 204.137 64.2515C205.107 64.2515 205.982 64.4645 206.761 64.8906C207.541 65.3076 208.153 65.8878 208.597 66.6311C209.041 67.3745 209.263 68.213 209.263 69.1467C209.263 70.0804 209.041 70.919 208.597 71.6623C208.153 72.4057 207.541 72.9904 206.761 73.4164C205.982 73.8334 205.107 74.0419 204.137 74.0419ZM204.137 72.4918C204.772 72.4918 205.343 72.3513 205.85 72.0703C206.358 71.7802 206.757 71.3813 207.047 70.8736C207.337 70.3569 207.482 69.7813 207.482 69.1467C207.482 68.5122 207.337 67.9411 207.047 67.4334C206.757 66.9167 206.358 66.5178 205.85 66.2368C205.343 65.9467 204.772 65.8017 204.137 65.8017C203.502 65.8017 202.931 65.9467 202.424 66.2368C201.916 66.5178 201.517 66.9167 201.227 67.4334C200.937 67.9411 200.792 68.5122 200.792 69.1467C200.792 69.7813 200.937 70.3569 201.227 70.8736C201.517 71.3813 201.916 71.7802 202.424 72.0703C202.931 72.3513 203.502 72.4918 204.137 72.4918Z" fill="#404040"/>
<path d="M217.01 64.3875C217.835 64.3875 218.551 64.5235 219.159 64.7954C219.775 65.0674 220.247 65.4572 220.573 65.9648C220.899 66.4725 221.063 67.0753 221.063 67.7733C221.063 68.4623 220.899 69.0651 220.573 69.5819C220.247 70.0895 219.775 70.4793 219.159 70.7513C218.551 71.0232 217.835 71.1592 217.01 71.1592H214.862V73.906H213.094V64.3875H217.01ZM216.929 69.6634C217.699 69.6634 218.284 69.5003 218.683 69.1739C219.082 68.8476 219.281 68.3807 219.281 67.7733C219.281 67.166 219.082 66.6991 218.683 66.3728C218.284 66.0464 217.699 65.8832 216.929 65.8832H214.862V69.6634H216.929Z" fill="#404040"/>
<path d="M233.355 73.906L233.341 67.5966L230.214 72.8181H229.425L226.297 67.6782V73.906H224.625V64.3875H226.08L229.847 70.6833L233.572 64.3875H235.014L235.041 73.906H233.355Z" fill="#404040"/>
<path d="M245.89 71.7031H241.131L240.193 73.906H238.371L242.654 64.3875H244.395L248.692 73.906H246.842L245.89 71.7031ZM245.306 70.3161L243.511 66.1552L241.73 70.3161H245.306Z" fill="#404040"/>
<path d="M261.75 72.4102V76H260.118V73.906H252.041V64.3875H253.782V72.4102H258.582V64.3875H260.336V72.4102H261.75Z" fill="#404040"/>
<path d="M265.258 64.3875H266.999V71.1456L272.111 64.3875H273.757V73.906H272.016V67.1614L266.904 73.906H265.258V64.3875Z" fill="#404040"/>
<path d="M278.316 64.3875H280.056V71.1456L285.169 64.3875H286.814V73.906H285.074V67.1614L279.961 73.906H278.316V64.3875Z" fill="#404040"/>
<path d="M15.6103 40.816H10.7151V55.3929H0V17.319H10.7151V32.1134H15.8822L24.9656 17.319H36.279L24.3673 35.7032L36.3877 55.3929H24.2585L15.6103 40.816Z" fill="#404040"/>
<path d="M65.2104 47.9957H49.1106L46.1191 55.3929H35.1321L51.939 17.319H62.5453L79.4065 55.3929H68.202L65.2104 47.9957ZM62.0557 40.0545L57.1605 27.8709L52.2653 40.0545H62.0557Z" fill="#404040"/>
<path d="M119.505 17.319V55.3929H108.844V25.8584H94.376V55.3929H83.7697V17.319H119.505Z" fill="#404040"/>
<path d="M127.644 17.319H138.25V39.6738L153.969 17.319H164.086V55.3929H153.48V33.0925L137.815 55.3929H127.644V17.319Z" fill="#404040"/>
<path d="M202.938 25.8584H191.299V55.3929H180.692V25.8584H168.998V17.319H202.938V25.8584Z" fill="#404040"/>
<path d="M232.262 47.9957H216.162L213.17 55.3929H202.183L218.99 17.319H229.596L246.458 55.3929H235.253L232.262 47.9957ZM229.107 40.0545L224.212 27.8709L219.317 40.0545H229.107Z" fill="#404040"/>
<path d="M286.763 17.319V55.3929H276.157V25.8584H265.224L265.007 32.059C264.826 37.4981 264.372 41.922 263.647 45.3305C262.958 48.739 261.762 51.386 260.057 53.2716C258.353 55.1209 255.942 56.0456 252.823 56.0456C251.373 56.0456 249.741 55.828 247.928 55.3929L248.526 46.5815C248.998 46.6903 249.487 46.7447 249.995 46.7447C251.409 46.7447 252.497 46.1826 253.258 45.0585C254.02 43.9344 254.564 42.3752 254.89 40.3809C255.216 38.3503 255.434 35.7214 255.543 32.4941L256.087 17.319H286.763Z" fill="#404040"/>
<path d="M0.0454102 0H36.2754V8.54896L0.0454102 8.54896V0Z" fill="#00B25D"/>
</svg>
